<svg id="Layer_1" enable-background="new 0 0 512 512" height="512" fill="whitesmoke" viewBox="0 0 512 512" width="512" xmlns="http://www.w3.org/2000/svg"><g><g><path d="m500.5 419.502h-25.023c1.927-3.756 3.023-8.006 3.023-12.51l-.01-259.979c0-15.163-12.336-27.499-27.5-27.499h-79.9c-3.198-15.858-9.542-30.757-18.847-43.941-2.388-3.384-7.068-4.191-10.452-1.803s-4.191 7.068-1.803 10.452c12.282 17.402 18.683 38.276 18.512 60.364-.324 41.782-19.45 62.113-39.698 83.638-10.168 10.809-20.682 21.985-28.596 35.934-9.104 16.048-14.414 29.887-18.681 41.007-6.478 16.883-9.033 22.341-14.525 22.341-5.037 0-7.962-6.278-14.446-22.892-4.361-11.175-9.79-25.082-18.805-40.535-8.22-14.089-18.761-25.23-28.955-36.004-20.207-21.357-39.293-41.529-39.293-83.43 0-27.157 10.558-52.66 29.729-71.81 19.086-19.066 44.622-29.832 71.904-30.317 22.895-.418 44.404 6.604 62.251 20.271 3.288 2.52 7.997 1.896 10.514-1.394 2.519-3.289 1.895-7.996-1.394-10.514-20.565-15.75-45.337-23.829-71.638-23.361-31.184.555-60.39 12.879-82.238 34.703-15.968 15.951-26.725 35.739-31.43 57.303h-82.199c-15.164 0-27.5 12.336-27.5 27.499l.01 259.979c0 4.499 1.093 8.746 3.017 12.499h-25.027c-6.341 0-11.5 5.159-11.5 11.5v19.999c0 18.47 15.028 33.498 33.5 33.498h382.416c4.142 0 7.5-3.358 7.5-7.5s-3.358-7.5-7.5-7.5h-382.416c-10.201 0-18.5-8.299-18.5-18.499v-16.499h187.5v4.499c0 10.752 8.748 19.499 19.5 19.499h68c10.752 0 19.5-8.748 19.5-19.499v-4.499h187.5v16.499c0 10.2-8.299 18.499-18.5 18.499h-30.631c-4.142 0-7.5 3.358-7.5 7.5s3.358 7.5 7.5 7.5h30.631c18.472 0 33.5-15.028 33.5-33.499v-19.999c0-6.341-5.159-11.5-11.5-11.5zm-451.99-12.499-.01-259.98c0-6.892 5.607-12.499 12.5-12.499h79.938c-.285 3.347-.438 6.721-.438 10.12 0 1.658.032 3.279.084 4.879h-69.584c-1.989 0-3.897.79-5.303 2.197-1.407 1.407-2.197 3.314-2.197 5.304l.007 162.482c0 4.142 3.358 7.5 7.5 7.5s7.5-3.358 7.5-7.5l-.007-154.983h63.41c5.174 34.932 23.839 54.68 41.987 73.861 10.052 10.624 19.546 20.659 26.895 33.254 8.425 14.44 13.616 27.742 17.788 38.43 7.074 18.123 12.661 32.438 28.42 32.438 16.265 0 21.678-14.107 28.53-31.968 4.087-10.652 9.173-23.909 17.723-38.978 7.025-12.383 16.473-22.426 26.474-33.058 18.15-19.294 36.817-39.157 42.22-73.989h61.544l.009 224.98-354.99.01-.001-37.907c0-4.142-3.358-7.5-7.5-7.5s-7.5 3.358-7.5 7.5l.001 45.407c0 4.142 3.358 7.5 7.5 7.5l369.99-.01c1.989 0 3.897-.791 5.304-2.197 1.406-1.407 2.196-3.314 2.196-5.304l-.01-239.98c0-4.142-3.358-7.499-7.5-7.499h-67.609c.063-1.578.106-3.177.119-4.811.026-3.424-.098-6.82-.347-10.188h77.837c6.893 0 12.5 5.607 12.5 12.499l.01 259.979c0 6.892-5.607 12.499-12.5 12.499l-389.99.01c-6.893.001-12.5-5.606-12.5-12.498zm245.99 31.999c0 2.481-2.019 4.5-4.5 4.5h-68c-2.481 0-4.5-2.019-4.5-4.5v-4.499h77z"/><path d="m206.5 144.014c0 27.293 22.206 49.498 49.5 49.498s49.5-22.205 49.5-49.498-22.206-49.498-49.5-49.498-49.5 22.204-49.5 49.498zm84 0c0 19.022-15.477 34.498-34.5 34.498s-34.5-15.476-34.5-34.498 15.477-34.498 34.5-34.498 34.5 15.475 34.5 34.498z"/></g></g></svg>